# xmcd
#
# Track frame offsets: 
#        150
#        17717
#        34487
#        50820
#        65282
#        81607
#        99380
#        114870
#        127687
#        143342
#        159852
#        175257
#
# Disc length: 2633 seconds
#
# Revision: 65
# Processed by: cddbd v1.5.2PL0 Copyright (c) Steve Scherf et al.
# Submitted via: ExactAudioCopy v0.99pb4
#
DISCID=930a470c
DTITLE=Dixie Chicks - Wide Open Spaces
DYEAR=1998
DGENRE=Country
TTITLE0=I Can Love You Better
TTITLE1=Wide Open Spaces
TTITLE2=Loving Arms
TTITLE3=There's Your Trouble
TTITLE4=You Were Mine
TTITLE5=Never Say Die
TTITLE6=Tonight The Heartache's On Me
TTITLE7=Let 'Er Rip
TTITLE8=Once You've Loved Somebody
TTITLE9=I'll Take Care Of You
TTITLE10=Am I The Only One (Who's Ever Felt This Way)
TTITLE11=Give It Up Or Let Me Go
EXTD=
EXTT0=
EXTT1=
EXTT2=
EXTT3=
EXTT4=
EXTT5=
EXTT6=
EXTT7=
EXTT8=
EXTT9=
EXTT10=
EXTT11=
PLAYORDER=
